<?xml version="1.0" encoding="UTF-8" standalone="no"?>
<svg
   xmlns:dc="http://purl.org/dc/elements/1.1/"
   xmlns:cc="http://creativecommons.org/ns#"
   xmlns:rdf="http://www.w3.org/1999/02/22-rdf-syntax-ns#"
   xmlns:svg="http://www.w3.org/2000/svg"
   xmlns="http://www.w3.org/2000/svg"
   viewBox="0 0 359.79529 546.4502"
   height="546.4502"
   width="359.79529"
   id="svg4572"
   version="1.1">
  <metadata
     id="metadata4578">
    <rdf:RDF>
      <cc:Work
         rdf:about="">
        <dc:format>image/svg+xml</dc:format>
        <dc:type
           rdf:resource="http://purl.org/dc/dcmitype/StillImage" />
        <dc:title></dc:title>
      </cc:Work>
    </rdf:RDF>
  </metadata>
  <defs
     id="defs4576" />
  <g
     transform="translate(-32.554721,-23.737412)"
     style="display:inline;opacity:1"
     id="layer2">
    <g
       transform="matrix(0.9290069,-0.07503149,0.07503149,0.9290069,-213.96577,57.241066)"
       id="g4816">
      <path
         style="opacity:1;fill:#ffffff;fill-rule:evenodd;stroke:none;stroke-width:0.13333333;stroke-linecap:butt;stroke-linejoin:miter;stroke-miterlimit:4;stroke-dasharray:none;stroke-opacity:1"
         d="M 507.20339,80.946347 533.77119,72.8955 492.71186,99.463297 Z"
         id="path4722" />
      <path
         style="opacity:1;fill:#2f80ed;fill-rule:evenodd;stroke:none;stroke-width:0.13333333;stroke-linecap:butt;stroke-linejoin:miter;stroke-miterlimit:4;stroke-dasharray:none;stroke-opacity:1;fill-opacity:1"
         d="m 264.0678,191.24296 28.93565,-66.46486 40.30164,-61.543617 67.84616,-23.347457 74.65384,10.466101 41.17376,40.173326 -25.07207,39.530067 -33.81356,-7.24577 -13.68644,-28.177962 -62.79661,-2.415254 -51.52542,28.177966 z"
         id="path4657" />
      <path
         style="opacity:1;fill:#999999;fill-rule:evenodd;stroke:none;stroke-width:0.13333333;stroke-linecap:butt;stroke-linejoin:miter;stroke-miterlimit:4;stroke-dasharray:none;stroke-opacity:1"
         d="m 533.77119,72.8955 -41.05933,26.567797 -0.80508,30.593223 z"
         id="path4724" />
      <path
         style="opacity:1;fill:#afcef8;fill-opacity:1;fill-rule:evenodd;stroke:none;stroke-width:0.13333333;stroke-linecap:butt;stroke-linejoin:miter;stroke-miterlimit:4;stroke-dasharray:none;stroke-opacity:1"
         d="M 479.3345,79.512589 516.97885,90.526453 475.80509,50.353127 401.15125,39.887026 444.88864,46.20393 Z"
         id="path4720" />
      <path
         style="opacity:1;fill:#e7e7e7;fill-opacity:1;fill-rule:evenodd;stroke:none;stroke-width:0.13333333;stroke-linecap:butt;stroke-linejoin:miter;stroke-miterlimit:4;stroke-dasharray:none;stroke-opacity:1"
         d="m 264.0678,191.24296 66.01695,-70.84746 51.52542,-28.177966 h 43.47458 l 8.05084,-21.737288 42.6695,-20.127119 -31.39831,44.279661 13.68644,28.177962 33.81356,7.24577 -8.05085,16.10169 20.93221,16.1017 6.44067,-6.44068 12.88136,33.81356 2.41525,28.98305 -3.22033,12.07627 8.85593,86.14407 10.4661,39.44915 -11.27119,25.76271 -11.27118,10.4661 -19.32204,13.68645 -18.51695,-4.83051 -16.90678,-1.61017 -21.73728,-22.54238 -6.44068,-44.27966 -22.54238,-36.22881 -23.34745,-5.63559 -28.17797,98.22034 -32.20339,152.9661 -34.61864,33.81356 -39.44916,-26.5678 -23.34745,-102.24576 8.05084,-152.16102 z"
         id="path4661" />
      <path
         style="opacity:1;fill:#666666;fill-rule:evenodd;stroke:none;stroke-width:0.13333333;stroke-linecap:butt;stroke-linejoin:miter;stroke-miterlimit:4;stroke-dasharray:none;stroke-opacity:1"
         d="m 338.94068,250.01414 53.94068,-1.61017 37.03389,27.37289 53.1356,41.05932 -45.88983,16.10169 -22.54238,-36.22881 -23.34745,-5.63559 z"
         id="path4675" />
      <path
         style="opacity:1;fill:#666666;fill-rule:evenodd;stroke:none;stroke-width:0.13333333;stroke-linecap:butt;stroke-linejoin:miter;stroke-miterlimit:4;stroke-dasharray:none;stroke-opacity:1"
         d="m 483.85593,146.15821 20.93221,16.1017 146.52542,-145.720342 z"
         id="path4645" />
      <path
         style="opacity:1;fill:#000000;fill-rule:evenodd;stroke:none;stroke-width:0.13333333;stroke-linecap:butt;stroke-linejoin:miter;stroke-miterlimit:4;stroke-dasharray:none;stroke-opacity:1"
         d="m 427.5,190.43787 18.51695,31.39831 19.32203,10.4661 -10.4661,-33.81356 z"
         id="path4647" />
      <path
         id="path4659"
         d="M 483.85593,146.15821 491.90678,130.05652 651.31356,16.539568 Z"
         style="opacity:1;fill:#cccccc;fill-rule:evenodd;stroke:none;stroke-width:0.13333333;stroke-linecap:butt;stroke-linejoin:miter;stroke-miterlimit:4;stroke-dasharray:none;stroke-opacity:1" />
      <path
         style="display:inline;opacity:1;fill:#b3b3b3;fill-rule:evenodd;stroke:none;stroke-width:0.13333333;stroke-linecap:butt;stroke-linejoin:miter;stroke-miterlimit:4;stroke-dasharray:none;stroke-opacity:1"
         d="m 437.16102,332.93787 45.88983,-16.10169 -54.93273,-42.75879 z"
         id="path4677" />
      <path
         style="opacity:1;fill:#b3b3b3;fill-rule:evenodd;stroke:none;stroke-width:0.13333333;stroke-linecap:butt;stroke-linejoin:miter;stroke-miterlimit:4;stroke-dasharray:none;stroke-opacity:1"
         d="m 392.88136,248.40397 34.61864,-57.9661 18.51695,31.39831 -17.89883,52.24121 z"
         id="path4680" />
      <path
         style="opacity:1;fill:#bdbdbd;fill-opacity:1;fill-rule:evenodd;stroke:none;stroke-width:0.13333333;stroke-linecap:butt;stroke-linejoin:miter;stroke-miterlimit:4;stroke-dasharray:none;stroke-opacity:1"
         d="m 483.05085,316.83618 -17.71187,-84.5339 -19.32203,-10.4661 -17.89883,52.24121 z"
         id="path4682" />
      <path
         style="opacity:1;fill:#d3d3d3;fill-opacity:1;fill-rule:evenodd;stroke:none;stroke-width:0.13333333;stroke-linecap:butt;stroke-linejoin:miter;stroke-miterlimit:4;stroke-dasharray:none;stroke-opacity:1"
         d="m 512.0339,184.80228 -45.88983,-10.4661 -11.27119,24.15254 10.4661,33.81356 12.88136,-16.90678 33.00847,4.02542 z"
         id="path4684" />
      <path
         style="opacity:1;fill:#b3b3b3;fill-rule:evenodd;stroke:none;stroke-width:0.13333333;stroke-linecap:butt;stroke-linejoin:miter;stroke-miterlimit:4;stroke-dasharray:none;stroke-opacity:1"
         d="m 512.0339,184.80228 12.07627,4.83051 2.41525,28.98305 -3.22033,12.07627 -4.83051,-10.06356 -7.24577,-1.20763 z"
         id="path4686" />
      <path
         style="display:inline;opacity:1;fill:#b3b3b3;fill-rule:evenodd;stroke:none;stroke-width:0.13333333;stroke-linecap:butt;stroke-linejoin:miter;stroke-miterlimit:4;stroke-dasharray:none;stroke-opacity:1"
         d="m 483.05085,316.83618 14.08898,38.24152 16.50424,13.68644 17.30932,-0.40254 11.67373,-12.07627 -11.27119,25.76271 -11.27118,10.4661 -20.12712,-6.44067 -18.11441,-15.29661 -9.25847,-30.59322 z"
         id="path4706" />
      <path
         style="display:inline;opacity:1;fill:#f9f9f9;fill-rule:evenodd;stroke:none;stroke-width:0.13333333;stroke-linecap:butt;stroke-linejoin:miter;stroke-miterlimit:4;stroke-dasharray:none;stroke-opacity:1"
         d="m 437.16102,332.93787 14.49152,16.90678 20.93221,-9.66101 10.4661,-23.34746 z"
         id="path4708" />
      <path
         style="display:inline;opacity:1;fill:#999999;fill-rule:evenodd;stroke:none;stroke-width:0.13333333;stroke-linecap:butt;stroke-linejoin:miter;stroke-miterlimit:4;stroke-dasharray:none;stroke-opacity:1"
         d="m 451.65254,349.84465 10.06356,26.5678 -18.1144,0.80508 -6.44068,-44.27966 z"
         id="path4710" />
      <path
         style="display:inline;opacity:1;fill:#666666;fill-rule:evenodd;stroke:none;stroke-width:0.13333333;stroke-linecap:butt;stroke-linejoin:miter;stroke-miterlimit:4;stroke-dasharray:none;stroke-opacity:1"
         d="m 461.7161,376.41245 20.52966,24.95763 -16.90678,-1.61017 -21.73728,-22.54238 z"
         id="path4712" />
      <path
         style="opacity:1;fill:#134d85;fill-opacity:1;fill-rule:evenodd;stroke:none;stroke-width:0.13333333;stroke-linecap:butt;stroke-linejoin:miter;stroke-miterlimit:4;stroke-dasharray:none;stroke-opacity:1"
         d="m 458.09322,122.81075 33.81356,7.24577 25.07207,-39.530067 -37.64435,-11.013864 z"
         id="path4718" />
      <path
         style="opacity:1;fill:#b3b3b3;fill-rule:evenodd;stroke:none;stroke-width:0.13333333;stroke-linecap:butt;stroke-linejoin:miter;stroke-miterlimit:4;stroke-dasharray:none;stroke-opacity:1"
         d="m 461.7161,376.41245 20.12712,-5.63559 -9.25847,-30.59322 -20.93221,9.66101 z"
         id="path4726" />
      <path
         style="opacity:1;fill:#d4d4d4;fill-opacity:1;fill-rule:evenodd;stroke:none;stroke-width:0.13333333;stroke-linecap:butt;stroke-linejoin:miter;stroke-miterlimit:4;stroke-dasharray:none;stroke-opacity:1"
         d="m 338.94068,250.01414 -16.7277,-23.62708 -60.34377,129.79604 -28.39463,91.07681 23.34745,102.24576 58.55958,-169.41277 45.54247,-113.85618 z"
         id="path4732" />
      <path
         style="display:inline;opacity:1;fill:#e2e2e2;fill-opacity:1;fill-rule:evenodd;stroke:none;stroke-width:0.13333333;stroke-linecap:butt;stroke-linejoin:miter;stroke-miterlimit:4;stroke-dasharray:none;stroke-opacity:1"
         d="m 481.84322,370.77686 15.29661,-15.69916 -14.08898,-38.24152 -10.4661,23.34746 z"
         id="path4728" />
      <path
         style="display:inline;opacity:1;fill:#b3b3b3;fill-rule:evenodd;stroke:none;stroke-width:0.13333333;stroke-linecap:butt;stroke-linejoin:miter;stroke-miterlimit:4;stroke-dasharray:none;stroke-opacity:1"
         d="m 511.22881,219.42092 15.92529,130.50009 15.47302,6.36432 -10.4661,-39.44915 -8.85593,-86.14407 -4.83051,-10.06356 z"
         id="path4730" />
      <path
         style="display:inline;opacity:1;fill:#787878;fill-opacity:1;fill-rule:evenodd;stroke:none;stroke-width:0.13333333;stroke-linecap:butt;stroke-linejoin:miter;stroke-miterlimit:4;stroke-dasharray:none;stroke-opacity:1"
         d="M 430.94563,90.328925 418.42145,113.66944 444.40678,94.632788 475.80509,50.353127 Z"
         id="path4736" />
      <path
         style="display:inline;opacity:1;fill:#4d4d4d;fill-rule:evenodd;stroke:none;stroke-width:0.13333333;stroke-linecap:butt;stroke-linejoin:miter;stroke-miterlimit:4;stroke-dasharray:none;stroke-opacity:1"
         d="m 497.13983,355.0777 30.01427,-5.15669 15.47302,6.36432 -11.67373,12.07627 -17.30932,0.40254 z"
         id="path4738" />
      <path
         style="opacity:1;fill:#ededed;fill-opacity:1;fill-rule:evenodd;stroke:none;stroke-width:0.13333333;stroke-linecap:butt;stroke-linejoin:miter;stroke-miterlimit:4;stroke-dasharray:none;stroke-opacity:1"
         d="m 355.80055,154.08838 10.81634,12.52418 51.80456,-52.94312 6.6633,-21.451906 z"
         id="path4734" />
      <path
         style="opacity:1;fill:#efefef;fill-opacity:1;fill-rule:evenodd;stroke:none;stroke-width:0.13333333;stroke-linecap:butt;stroke-linejoin:miter;stroke-miterlimit:4;stroke-dasharray:none;stroke-opacity:1"
         d="m 418.42145,113.66944 9.07855,76.76843 27.37288,8.05085 11.27119,-24.15254 45.88983,10.4661 -7.24576,-22.54237 -20.93221,-16.1017 8.05085,-16.10169 -33.81356,-7.24577 -13.68644,-28.177962 z"
         id="path4745" />
      <path
         style="opacity:1;fill:#d4d4d4;fill-opacity:1;fill-rule:evenodd;stroke:none;stroke-width:0.13333333;stroke-linecap:butt;stroke-linejoin:miter;stroke-miterlimit:4;stroke-dasharray:none;stroke-opacity:1"
         d="m 233.47458,447.25991 23.34745,102.24576 57.9903,-165.99709 -52.94312,-27.32548 z"
         id="path4747" />
      <path
         style="opacity:1;fill:#dadada;fill-opacity:1;fill-rule:evenodd;stroke:none;stroke-width:0.13333333;stroke-linecap:butt;stroke-linejoin:miter;stroke-miterlimit:4;stroke-dasharray:none;stroke-opacity:1"
         d="m 241.52542,295.09889 20.34379,61.08421 -28.39463,91.07681 z"
         id="path4749" />
      <path
         style="opacity:1;fill:#b3b3b3;fill-rule:evenodd;stroke:none;stroke-width:0.13333333;stroke-linecap:butt;stroke-linejoin:miter;stroke-miterlimit:4;stroke-dasharray:none;stroke-opacity:1"
         d="m 314.81233,383.50858 29.03332,9.67778 -47.57446,182.88711 -39.44916,-26.5678 z"
         id="path4751" />
      <path
         style="opacity:1;fill:#4d4d4d;fill-rule:evenodd;stroke:none;stroke-width:0.13333333;stroke-linecap:butt;stroke-linejoin:miter;stroke-miterlimit:4;stroke-dasharray:none;stroke-opacity:1"
         d="m 343.84565,393.18636 19.24757,-3.89255 -32.20339,152.9661 -34.61864,33.81356 z"
         id="path4755" />
      <path
         style="opacity:1;fill:#a5a5a5;fill-opacity:0.65134104;fill-rule:evenodd;stroke:none;stroke-width:0.13333333;stroke-linecap:butt;stroke-linejoin:miter;stroke-miterlimit:4;stroke-dasharray:none;stroke-opacity:1"
         d="m 314.81233,383.50858 29.03332,9.67778 35.34927,-110.96883 -18.27084,-15.98081 z"
         id="path4757" />
      <path
         style="opacity:1;fill:#1a1a1a;fill-opacity:0.5372549;fill-rule:evenodd;stroke:none;stroke-width:0.13333333;stroke-linecap:butt;stroke-linejoin:miter;stroke-miterlimit:4;stroke-dasharray:none;stroke-opacity:1"
         d="m 363.09322,389.29381 28.17797,-98.22034 -12.07627,-8.85594 -35.34927,110.96883 z"
         id="path4759" />
      <path
         style="opacity:1;fill:#666666;fill-rule:evenodd;stroke:none;stroke-width:0.13333333;stroke-linecap:butt;stroke-linejoin:miter;stroke-miterlimit:4;stroke-dasharray:none;stroke-opacity:1"
         d="m 461.7161,376.41245 20.52966,24.95763 18.51695,4.83051 19.32204,-13.68645 -20.12712,-6.44067 -18.11441,-15.29661 z"
         id="path4761" />
    </g>
  </g>
</svg>
